<mxfile host="app.diagrams.net" agent="Mozilla/5.0 (Windows NT 10.0; Win64; x64) AppleWebKit/537.36 (KHTML, like Gecko) Chrome/126.0.0.0 Safari/537.36 Edg/126.0.0.0" version="24.7.5">
  <diagram id="C5RBs43oDa-KdzZeNtuy" name="Page-1">
    <mxGraphModel dx="979" dy="1639" grid="1" gridSize="10" guides="1" tooltips="1" connect="1" arrows="1" fold="1" page="1" pageScale="1" pageWidth="827" pageHeight="1169" math="0" shadow="0">
      <root>
        <mxCell id="WIyWlLk6GJQsqaUBKTNV-0" />
        <mxCell id="WIyWlLk6GJQsqaUBKTNV-1" parent="WIyWlLk6GJQsqaUBKTNV-0" />
        <mxCell id="csjGQ0CITyOqNGNX8zxM-1" style="edgeStyle=orthogonalEdgeStyle;rounded=0;orthogonalLoop=1;jettySize=auto;html=1;exitX=0.5;exitY=0;exitDx=0;exitDy=0;entryX=0.5;entryY=0;entryDx=0;entryDy=0;" edge="1" parent="WIyWlLk6GJQsqaUBKTNV-1" source="zkfFHV4jXpPFQw0GAbJ--0" target="zkfFHV4jXpPFQw0GAbJ--0">
          <mxGeometry relative="1" as="geometry">
            <mxPoint x="240" y="20" as="targetPoint" />
          </mxGeometry>
        </mxCell>
        <mxCell id="zkfFHV4jXpPFQw0GAbJ--0" value="User" style="swimlane;fontStyle=2;align=center;verticalAlign=top;childLayout=stackLayout;horizontal=1;startSize=26;horizontalStack=0;resizeParent=1;resizeLast=0;collapsible=1;marginBottom=0;rounded=0;shadow=0;strokeWidth=1;" parent="WIyWlLk6GJQsqaUBKTNV-1" vertex="1">
          <mxGeometry x="100" y="-230" width="220" height="410" as="geometry">
            <mxRectangle x="230" y="140" width="160" height="26" as="alternateBounds" />
          </mxGeometry>
        </mxCell>
        <mxCell id="csjGQ0CITyOqNGNX8zxM-0" value="- &lt;span class=&quot;hljs-attr&quot;&gt;userId&lt;/span&gt;: int&lt;br&gt;&lt;div&gt;&lt;span style=&quot;background-color: initial;&quot;&gt;- &lt;/span&gt;&lt;span style=&quot;background-color: initial;&quot; class=&quot;hljs-attr&quot;&gt;username&lt;/span&gt;&lt;span style=&quot;background-color: initial;&quot;&gt;: &lt;/span&gt;&lt;span style=&quot;background-color: initial;&quot; class=&quot;hljs-title class_&quot;&gt;String&lt;/span&gt;&lt;/div&gt;&lt;div&gt;&lt;span style=&quot;background-color: initial;&quot;&gt;- &lt;/span&gt;&lt;span style=&quot;background-color: initial;&quot; class=&quot;hljs-attr&quot;&gt;email&lt;/span&gt;&lt;span style=&quot;background-color: initial;&quot;&gt;: &lt;/span&gt;&lt;span style=&quot;background-color: initial;&quot; class=&quot;hljs-title class_&quot;&gt;String&lt;/span&gt;&lt;/div&gt;&lt;div&gt;&lt;span style=&quot;background-color: initial;&quot; class=&quot;hljs-title class_&quot;&gt;- &lt;span class=&quot;hljs-attr&quot;&gt;password&lt;/span&gt;: &lt;span class=&quot;hljs-title class_&quot;&gt;String&lt;/span&gt;&lt;br&gt;&lt;/span&gt;&lt;/div&gt;&lt;div&gt;&lt;span style=&quot;background-color: initial;&quot; class=&quot;hljs-title class_&quot;&gt;&lt;span class=&quot;hljs-title class_&quot;&gt;- firstname:String&lt;/span&gt;&lt;/span&gt;&lt;/div&gt;&lt;div&gt;&lt;span style=&quot;background-color: initial;&quot; class=&quot;hljs-title class_&quot;&gt;&lt;span class=&quot;hljs-title class_&quot;&gt;lastname:String&lt;/span&gt;&lt;/span&gt;&lt;/div&gt;&lt;div&gt;&lt;span style=&quot;background-color: initial;&quot; class=&quot;hljs-title class_&quot;&gt;&lt;span class=&quot;hljs-title class_&quot;&gt;phonenumber:String&lt;/span&gt;&lt;/span&gt;&lt;/div&gt;&lt;div&gt;&lt;span style=&quot;background-color: initial;&quot; class=&quot;hljs-title class_&quot;&gt;&lt;span class=&quot;hljs-title class_&quot;&gt;- &lt;span class=&quot;hljs-attr&quot;&gt;profilePicture&lt;/span&gt;: &lt;span class=&quot;hljs-title class_&quot;&gt;String&lt;/span&gt;&lt;br&gt;&lt;/span&gt;&lt;/span&gt;&lt;/div&gt;&lt;div&gt;- &lt;span class=&quot;hljs-attr&quot;&gt;createdAt&lt;/span&gt;: &lt;span class=&quot;hljs-title class_&quot;&gt;Date&lt;/span&gt;&lt;br&gt;&lt;/div&gt;&lt;div&gt;&lt;span class=&quot;hljs-title class_&quot;&gt;- updated&lt;span class=&quot;hljs-attr&quot;&gt;At&lt;/span&gt;: &lt;span class=&quot;hljs-title class_&quot;&gt;Date&lt;/span&gt;&lt;br&gt;&lt;/span&gt;&lt;/div&gt;&lt;div&gt;&amp;nbsp;&lt;/div&gt;" style="text;html=1;align=center;verticalAlign=middle;resizable=0;points=[];autosize=1;strokeColor=none;fillColor=none;" vertex="1" parent="zkfFHV4jXpPFQw0GAbJ--0">
          <mxGeometry y="26" width="220" height="170" as="geometry" />
        </mxCell>
        <mxCell id="zkfFHV4jXpPFQw0GAbJ--4" value="&lt;div&gt;&lt;br&gt;&lt;/div&gt;&lt;div&gt;&lt;br&gt;&lt;/div&gt;" style="line;html=1;strokeWidth=1;align=left;verticalAlign=middle;spacingTop=-1;spacingLeft=3;spacingRight=3;rotatable=0;labelPosition=right;points=[];portConstraint=eastwest;" parent="zkfFHV4jXpPFQw0GAbJ--0" vertex="1">
          <mxGeometry y="196" width="220" height="64" as="geometry" />
        </mxCell>
        <mxCell id="csjGQ0CITyOqNGNX8zxM-2" value="+ &lt;span class=&quot;hljs-title function_&quot;&gt;register&lt;/span&gt;(): &lt;span class=&quot;hljs-keyword&quot;&gt;void&lt;/span&gt;&lt;div&gt;&lt;span class=&quot;hljs-keyword&quot;&gt;+ &lt;span class=&quot;hljs-title function_&quot;&gt;login&lt;/span&gt;(): &lt;span class=&quot;hljs-keyword&quot;&gt;void&lt;/span&gt;&lt;br&gt;&lt;/span&gt;&lt;/div&gt;&lt;div&gt;&lt;span class=&quot;hljs-keyword&quot;&gt;&lt;span class=&quot;hljs-keyword&quot;&gt;&amp;nbsp;+ &lt;span class=&quot;hljs-title function_&quot;&gt;logout&lt;/span&gt;(): &lt;span class=&quot;hljs-keyword&quot;&gt;void&lt;/span&gt;&lt;br&gt;&lt;/span&gt;&lt;/span&gt;&lt;/div&gt;&lt;div&gt;&lt;span class=&quot;hljs-keyword&quot;&gt;&lt;span class=&quot;hljs-keyword&quot;&gt;&lt;span class=&quot;hljs-keyword&quot;&gt;+ &lt;span class=&quot;hljs-title function_&quot;&gt;changePassword&lt;/span&gt;(): &lt;span class=&quot;hljs-keyword&quot;&gt;void&lt;/span&gt;&lt;br&gt;&lt;/span&gt;&lt;/span&gt;&lt;/span&gt;&lt;/div&gt;&lt;div&gt;&lt;span class=&quot;hljs-keyword&quot;&gt;&lt;span class=&quot;hljs-keyword&quot;&gt;&lt;span class=&quot;hljs-keyword&quot;&gt;&lt;span class=&quot;hljs-keyword&quot;&gt;+ &lt;span class=&quot;hljs-title function_&quot;&gt;updateProfile&lt;/span&gt;(): &lt;span class=&quot;hljs-keyword&quot;&gt;void&lt;/span&gt;&lt;br&gt;&lt;/span&gt;&lt;/span&gt;&lt;/span&gt;&lt;/span&gt;&lt;/div&gt;&lt;div&gt;&lt;span class=&quot;hljs-keyword&quot;&gt;&lt;span class=&quot;hljs-keyword&quot;&gt;&lt;span class=&quot;hljs-keyword&quot;&gt;&lt;span class=&quot;hljs-keyword&quot;&gt;&lt;span class=&quot;hljs-keyword&quot;&gt;+ &lt;span class=&quot;hljs-title function_&quot;&gt;deleteAccount&lt;/span&gt;(): &lt;span class=&quot;hljs-keyword&quot;&gt;void&lt;/span&gt;&lt;br&gt;&lt;/span&gt;&lt;/span&gt;&lt;/span&gt;&lt;/span&gt;&lt;/span&gt;&lt;/div&gt;&lt;div&gt;&lt;span class=&quot;hljs-keyword&quot;&gt;&lt;span class=&quot;hljs-keyword&quot;&gt;&lt;span class=&quot;hljs-keyword&quot;&gt;&lt;span class=&quot;hljs-keyword&quot;&gt;&lt;span class=&quot;hljs-keyword&quot;&gt;&lt;span class=&quot;hljs-keyword&quot;&gt;+ &lt;span class=&quot;hljs-title function_&quot;&gt;sendPasswordResetEmail&lt;/span&gt;(): &lt;span class=&quot;hljs-keyword&quot;&gt;void&lt;/span&gt;&lt;br&gt;&lt;/span&gt;&lt;/span&gt;&lt;/span&gt;&lt;/span&gt;&lt;/span&gt;&lt;/span&gt;&lt;/div&gt;&lt;div&gt;&lt;span class=&quot;hljs-keyword&quot;&gt;&lt;span class=&quot;hljs-keyword&quot;&gt;&lt;span class=&quot;hljs-keyword&quot;&gt;&lt;span class=&quot;hljs-keyword&quot;&gt;&lt;span class=&quot;hljs-keyword&quot;&gt;&lt;span class=&quot;hljs-keyword&quot;&gt;&lt;span class=&quot;hljs-keyword&quot;&gt;+ &lt;span class=&quot;hljs-title function_&quot;&gt;verifyEmail&lt;/span&gt;(): &lt;span class=&quot;hljs-keyword&quot;&gt;void&lt;/span&gt;&lt;br&gt;&lt;/span&gt;&lt;/span&gt;&lt;/span&gt;&lt;/span&gt;&lt;/span&gt;&lt;/span&gt;&lt;/span&gt;&lt;/div&gt;" style="text;html=1;align=center;verticalAlign=middle;resizable=0;points=[];autosize=1;strokeColor=none;fillColor=none;" vertex="1" parent="zkfFHV4jXpPFQw0GAbJ--0">
          <mxGeometry y="260" width="220" height="130" as="geometry" />
        </mxCell>
        <mxCell id="zkfFHV4jXpPFQw0GAbJ--6" value="payment" style="swimlane;fontStyle=0;align=center;verticalAlign=top;childLayout=stackLayout;horizontal=1;startSize=26;horizontalStack=0;resizeParent=1;resizeLast=0;collapsible=1;marginBottom=0;rounded=0;shadow=0;strokeWidth=1;" parent="WIyWlLk6GJQsqaUBKTNV-1" vertex="1">
          <mxGeometry x="50" y="1000" width="200" height="260" as="geometry">
            <mxRectangle x="130" y="380" width="160" height="26" as="alternateBounds" />
          </mxGeometry>
        </mxCell>
        <mxCell id="zkfFHV4jXpPFQw0GAbJ--7" value="- paymentId: int&#xa;-orderId: int&#xa;-userId: int&#xa;- amount: float&#xa;- paymentDate: Date&#xa;- paymentStatus: String&#xa;&#xa;" style="text;align=left;verticalAlign=top;spacingLeft=4;spacingRight=4;overflow=hidden;rotatable=0;points=[[0,0.5],[1,0.5]];portConstraint=eastwest;" parent="zkfFHV4jXpPFQw0GAbJ--6" vertex="1">
          <mxGeometry y="26" width="200" height="114" as="geometry" />
        </mxCell>
        <mxCell id="zkfFHV4jXpPFQw0GAbJ--9" value="" style="line;html=1;strokeWidth=1;align=left;verticalAlign=middle;spacingTop=-1;spacingLeft=3;spacingRight=3;rotatable=0;labelPosition=right;points=[];portConstraint=eastwest;" parent="zkfFHV4jXpPFQw0GAbJ--6" vertex="1">
          <mxGeometry y="140" width="200" height="8" as="geometry" />
        </mxCell>
        <mxCell id="zkfFHV4jXpPFQw0GAbJ--13" value="Product" style="swimlane;fontStyle=0;align=center;verticalAlign=top;childLayout=stackLayout;horizontal=1;startSize=26;horizontalStack=0;resizeParent=1;resizeLast=0;collapsible=1;marginBottom=0;rounded=0;shadow=0;strokeWidth=1;" parent="WIyWlLk6GJQsqaUBKTNV-1" vertex="1">
          <mxGeometry x="480" y="420" width="160" height="270" as="geometry">
            <mxRectangle x="340" y="380" width="170" height="26" as="alternateBounds" />
          </mxGeometry>
        </mxCell>
        <mxCell id="zkfFHV4jXpPFQw0GAbJ--14" value="- productId: int&#xa;- name: String&#xa;- description: String&#xa;- price: float&#xa;- quantity: int&#xa;- category: String&#xa;- createdAt: Date&#xa;- updatedAt: Date&#xa;&#xa;" style="text;align=left;verticalAlign=top;spacingLeft=4;spacingRight=4;overflow=hidden;rotatable=0;points=[[0,0.5],[1,0.5]];portConstraint=eastwest;" parent="zkfFHV4jXpPFQw0GAbJ--13" vertex="1">
          <mxGeometry y="26" width="160" height="134" as="geometry" />
        </mxCell>
        <mxCell id="zkfFHV4jXpPFQw0GAbJ--15" value="" style="line;html=1;strokeWidth=1;align=left;verticalAlign=middle;spacingTop=-1;spacingLeft=3;spacingRight=3;rotatable=0;labelPosition=right;points=[];portConstraint=eastwest;" parent="zkfFHV4jXpPFQw0GAbJ--13" vertex="1">
          <mxGeometry y="160" width="160" height="90" as="geometry" />
        </mxCell>
        <mxCell id="csjGQ0CITyOqNGNX8zxM-4" value="" style="edgeStyle=orthogonalEdgeStyle;rounded=0;orthogonalLoop=1;jettySize=auto;html=1;" edge="1" parent="WIyWlLk6GJQsqaUBKTNV-1" source="zkfFHV4jXpPFQw0GAbJ--17" target="zkfFHV4jXpPFQw0GAbJ--14">
          <mxGeometry relative="1" as="geometry" />
        </mxCell>
        <mxCell id="zkfFHV4jXpPFQw0GAbJ--17" value="BankCard" style="swimlane;fontStyle=0;align=center;verticalAlign=top;childLayout=stackLayout;horizontal=1;startSize=26;horizontalStack=0;resizeParent=1;resizeLast=0;collapsible=1;marginBottom=0;rounded=0;shadow=0;strokeWidth=1;" parent="WIyWlLk6GJQsqaUBKTNV-1" vertex="1">
          <mxGeometry x="490" y="120" width="220" height="216" as="geometry">
            <mxRectangle x="550" y="140" width="160" height="26" as="alternateBounds" />
          </mxGeometry>
        </mxCell>
        <mxCell id="zkfFHV4jXpPFQw0GAbJ--24" value="- cardId: int&#xa;- cardNumber: String&#xa;- cardHolderName: String&#xa;&#xa;- expirationDate: String&#xa;&#xa;- cvv: String&#xa;&#xa;- userId: int&#xa;" style="text;align=left;verticalAlign=top;spacingLeft=4;spacingRight=4;overflow=hidden;rotatable=0;points=[[0,0.5],[1,0.5]];portConstraint=eastwest;" parent="zkfFHV4jXpPFQw0GAbJ--17" vertex="1">
          <mxGeometry y="26" width="220" height="104" as="geometry" />
        </mxCell>
        <mxCell id="zkfFHV4jXpPFQw0GAbJ--23" value="" style="line;html=1;strokeWidth=1;align=left;verticalAlign=middle;spacingTop=-1;spacingLeft=3;spacingRight=3;rotatable=0;labelPosition=right;points=[];portConstraint=eastwest;" parent="zkfFHV4jXpPFQw0GAbJ--17" vertex="1">
          <mxGeometry y="130" width="220" height="8" as="geometry" />
        </mxCell>
        <mxCell id="csjGQ0CITyOqNGNX8zxM-3" value="+ &lt;span class=&quot;hljs-built_in&quot;&gt;addCard&lt;/span&gt;(): &lt;span class=&quot;hljs-type&quot;&gt;void&lt;/span&gt;&lt;div&gt;&lt;span class=&quot;hljs-type&quot;&gt;+ &lt;span class=&quot;hljs-built_in&quot;&gt;removeCard&lt;/span&gt;(): &lt;span class=&quot;hljs-type&quot;&gt;void&lt;/span&gt;&lt;br&gt;&lt;/span&gt;&lt;/div&gt;&lt;div&gt;&lt;span class=&quot;hljs-type&quot;&gt;&lt;span class=&quot;hljs-type&quot;&gt;+ &lt;span class=&quot;hljs-built_in&quot;&gt;updateCardDetails&lt;/span&gt;(): &lt;span class=&quot;hljs-type&quot;&gt;void&lt;/span&gt;&lt;br&gt;&lt;/span&gt;&lt;/span&gt;&lt;/div&gt;" style="text;html=1;align=center;verticalAlign=middle;resizable=0;points=[];autosize=1;strokeColor=none;fillColor=none;" vertex="1" parent="zkfFHV4jXpPFQw0GAbJ--17">
          <mxGeometry y="138" width="220" height="60" as="geometry" />
        </mxCell>
        <mxCell id="zkfFHV4jXpPFQw0GAbJ--26" value="" style="endArrow=open;shadow=0;strokeWidth=1;rounded=0;curved=0;endFill=1;edgeStyle=elbowEdgeStyle;elbow=vertical;" parent="WIyWlLk6GJQsqaUBKTNV-1" source="zkfFHV4jXpPFQw0GAbJ--0" target="zkfFHV4jXpPFQw0GAbJ--17" edge="1">
          <mxGeometry x="0.5" y="41" relative="1" as="geometry">
            <mxPoint x="380" y="192" as="sourcePoint" />
            <mxPoint x="540" y="192" as="targetPoint" />
            <mxPoint x="-40" y="32" as="offset" />
          </mxGeometry>
        </mxCell>
        <mxCell id="csjGQ0CITyOqNGNX8zxM-17" value="" style="edgeStyle=orthogonalEdgeStyle;rounded=0;orthogonalLoop=1;jettySize=auto;html=1;" edge="1" parent="WIyWlLk6GJQsqaUBKTNV-1" source="csjGQ0CITyOqNGNX8zxM-5" target="csjGQ0CITyOqNGNX8zxM-15">
          <mxGeometry relative="1" as="geometry" />
        </mxCell>
        <mxCell id="csjGQ0CITyOqNGNX8zxM-5" value="&lt;span class=&quot;hljs-string&quot;&gt;+&lt;/span&gt; &lt;span class=&quot;hljs-string&quot;&gt;addProduct():&lt;/span&gt; &lt;span class=&quot;hljs-string&quot;&gt;void&lt;/span&gt;&lt;div&gt;&lt;span class=&quot;hljs-string&quot;&gt;&lt;span class=&quot;hljs-string&quot;&gt;+&lt;/span&gt; &lt;span class=&quot;hljs-string&quot;&gt;removeProduct():&lt;/span&gt; &lt;span class=&quot;hljs-string&quot;&gt;void&lt;/span&gt;&lt;br&gt;&lt;/span&gt;&lt;/div&gt;&lt;div&gt;&lt;span class=&quot;hljs-string&quot;&gt;&lt;span class=&quot;hljs-string&quot;&gt;&lt;span class=&quot;hljs-string&quot;&gt;+&lt;/span&gt; &lt;span class=&quot;hljs-string&quot;&gt;updateProductDetails():&lt;/span&gt; &lt;span class=&quot;hljs-string&quot;&gt;void&lt;/span&gt;&lt;br&gt;&lt;/span&gt;&lt;/span&gt;&lt;/div&gt;" style="text;html=1;align=center;verticalAlign=middle;resizable=0;points=[];autosize=1;strokeColor=none;fillColor=none;" vertex="1" parent="WIyWlLk6GJQsqaUBKTNV-1">
          <mxGeometry x="465" y="623" width="190" height="60" as="geometry" />
        </mxCell>
        <mxCell id="csjGQ0CITyOqNGNX8zxM-14" value="Order" style="swimlane;fontStyle=0;align=center;verticalAlign=top;childLayout=stackLayout;horizontal=1;startSize=26;horizontalStack=0;resizeParent=1;resizeLast=0;collapsible=1;marginBottom=0;rounded=0;shadow=0;strokeWidth=1;" vertex="1" parent="WIyWlLk6GJQsqaUBKTNV-1">
          <mxGeometry x="430" y="760" width="200" height="260" as="geometry">
            <mxRectangle x="130" y="380" width="160" height="26" as="alternateBounds" />
          </mxGeometry>
        </mxCell>
        <mxCell id="csjGQ0CITyOqNGNX8zxM-15" value="- orderId: int&#xa;&#xa;- userId: int&#xa;&#xa;- productList: List&lt;Product&gt;&#xa;&#xa;- totalPrice: float&#xa;&#xa;- orderDate: Date&#xa;&#xa;" style="text;align=left;verticalAlign=top;spacingLeft=4;spacingRight=4;overflow=hidden;rotatable=0;points=[[0,0.5],[1,0.5]];portConstraint=eastwest;" vertex="1" parent="csjGQ0CITyOqNGNX8zxM-14">
          <mxGeometry y="26" width="200" height="114" as="geometry" />
        </mxCell>
        <mxCell id="csjGQ0CITyOqNGNX8zxM-16" value="" style="line;html=1;strokeWidth=1;align=left;verticalAlign=middle;spacingTop=-1;spacingLeft=3;spacingRight=3;rotatable=0;labelPosition=right;points=[];portConstraint=eastwest;" vertex="1" parent="csjGQ0CITyOqNGNX8zxM-14">
          <mxGeometry y="140" width="200" height="8" as="geometry" />
        </mxCell>
        <mxCell id="csjGQ0CITyOqNGNX8zxM-7" value="&lt;span class=&quot;hljs-operator&quot;&gt;+&lt;/span&gt; createOrder(): void&lt;br&gt;&lt;div&gt;&lt;span style=&quot;background-color: initial;&quot; class=&quot;hljs-operator&quot;&gt;+&lt;/span&gt;&lt;span style=&quot;background-color: initial;&quot;&gt; removeOrder(): void&lt;/span&gt;&lt;/div&gt;&lt;div&gt;&lt;span style=&quot;background-color: initial;&quot; class=&quot;hljs-operator&quot;&gt;+&lt;/span&gt;&lt;span style=&quot;background-color: initial;&quot;&gt; updateOrderDetails(): void&lt;/span&gt;&amp;nbsp;&lt;/div&gt;" style="text;html=1;align=center;verticalAlign=middle;resizable=0;points=[];autosize=1;strokeColor=none;fillColor=none;" vertex="1" parent="csjGQ0CITyOqNGNX8zxM-14">
          <mxGeometry y="148" width="200" height="60" as="geometry" />
        </mxCell>
        <mxCell id="csjGQ0CITyOqNGNX8zxM-18" style="edgeStyle=orthogonalEdgeStyle;rounded=0;orthogonalLoop=1;jettySize=auto;html=1;entryX=1.005;entryY=0.26;entryDx=0;entryDy=0;entryPerimeter=0;" edge="1" parent="WIyWlLk6GJQsqaUBKTNV-1" source="csjGQ0CITyOqNGNX8zxM-14" target="zkfFHV4jXpPFQw0GAbJ--7">
          <mxGeometry relative="1" as="geometry" />
        </mxCell>
        <mxCell id="csjGQ0CITyOqNGNX8zxM-19" value="&lt;span class=&quot;hljs-operator&quot;&gt;+&lt;/span&gt; createPayment(): void&lt;br&gt;&lt;div&gt;&lt;span style=&quot;background-color: initial;&quot; class=&quot;hljs-operator&quot;&gt;+&lt;/span&gt;&lt;span style=&quot;background-color: initial;&quot;&gt; checkPaymentStatus(): void&lt;/span&gt;&lt;/div&gt;&lt;div&gt;+updatePaymentDetails: void&amp;nbsp; &amp;nbsp;&lt;/div&gt;" style="text;html=1;align=center;verticalAlign=middle;resizable=0;points=[];autosize=1;strokeColor=none;fillColor=none;" vertex="1" parent="WIyWlLk6GJQsqaUBKTNV-1">
          <mxGeometry x="45" y="1143" width="190" height="60" as="geometry" />
        </mxCell>
      </root>
    </mxGraphModel>
  </diagram>
</mxfile>
